HIERARCHY
ROOT Hips
{
  OFFSET -35.2597 29.1586 114.425
  CHANNELS 6 Xposition Yposition Zposition Zrotation Xrotation Yrotation
  JOINT LeftUpLeg
  {
    OFFSET 8.64259 1.95398 -2.38835
    CHANNELS 3 Zrotation Xrotation Yrotation
    JOINT LeftLeg
    {
      OFFSET 43.7702 0 0
      CHANNELS 3 Zrotation Xrotation Yrotation
      JOINT LeftFoot
      {
        OFFSET 40.6238 0 0
        CHANNELS 3 Zrotation Xrotation Yrotation
        JOINT LeftToeBase
        {
          OFFSET 12.7242 0 0
          CHANNELS 3 Zrotation Xrotation Yrotation
          End Site
          {
            OFFSET 0 0 0
          }
        }
      }
    }
  }
  JOINT RightUpLeg
  {
    OFFSET -8.2249 1.95398 -2.59336
    CHANNELS 3 Zrotation Xrotation Yrotation
    JOINT RightLeg
    {
      OFFSET 43.5653 0 0
      CHANNELS 3 Zrotation Xrotation Yrotation
      JOINT RightFoot
      {
        OFFSET 40.6238 0 0
        CHANNELS 3 Zrotation Xrotation Yrotation
        JOINT RightToeBase
        {
          OFFSET 12.7242 0 0
          CHANNELS 3 Zrotation Xrotation Yrotation
          End Site
          {
            OFFSET 0 0 0
          }
        }
      }
    }
  }
  JOINT Spine
  {
    OFFSET 0.165834 0.87714 6.61349
    CHANNELS 3 Zrotation Xrotation Yrotation
    JOINT Spine1
    {
      OFFSET 7.38963 1.71661e-005 0
      CHANNELS 3 Zrotation Xrotation Yrotation
      JOINT Spine2
      {
        OFFSET 11.9445 1.14441e-005 0
        CHANNELS 3 Zrotation Xrotation Yrotation
        JOINT Spine3
        {
          OFFSET 14.7254 4.19617e-005 0
          CHANNELS 3 Zrotation Xrotation Yrotation
          JOINT Spine4
          {
            OFFSET 10.9679 0 0
            CHANNELS 3 Zrotation Xrotation Yrotation
            JOINT RightShoulder
            {
              OFFSET 2.46616 -1.6653 3.69651
              CHANNELS 3 Zrotation Xrotation Yrotation
              JOINT RightArm
              {
                OFFSET 13.0012 0 0
                CHANNELS 3 Zrotation Xrotation Yrotation
                JOINT RightForeArm
                {
                  OFFSET 28.7848 1.62311e-005 0
                  CHANNELS 3 Zrotation Xrotation Yrotation
                  JOINT RightHand
                  {
                    OFFSET 26.5688 1.62095e-005 0
                    CHANNELS 3 Zrotation Xrotation Yrotation
                    End Site
                    {
                      OFFSET 0 0 0
                    }
                  }
                }
              }
            }
            JOINT LeftShoulder
            {
              OFFSET 2.38034 -1.29275 -3.7523
              CHANNELS 3 Zrotation Xrotation Yrotation
              JOINT LeftArm
              {
                OFFSET 16.3182 6.07031e-005 0
                CHANNELS 3 Zrotation Xrotation Yrotation
                JOINT LeftForeArm
                {
                  OFFSET 27.0901 0 0
                  CHANNELS 3 Zrotation Xrotation Yrotation
                  JOINT LeftHand
                  {
                    OFFSET 24.5451 1.51738e-005 0
                    CHANNELS 3 Zrotation Xrotation Yrotation
                    End Site
                    {
                      OFFSET 0 0 0
                    }
                  }
                }
              }
            }
            JOINT Neck
            {
              OFFSET 5.0226 -0.0266342 0
              CHANNELS 3 Zrotation Xrotation Yrotation
              JOINT Head
              {
                OFFSET 6.69364 2.86102e-005 0
                CHANNELS 3 Zrotation Xrotation Yrotation
                End Site
                {
                  OFFSET 0 0 0
                }
              }
            }
          }
        }
      }
    }
  }
}
MOTION
Frames:	7
Frame Time:	0.0416667
7.54995 100.784 -4.5064 -102.451 -49.3246 -100.036 -174.639 -4.55957 90.2462 -11.7487 8.85377 1.01513 69.0065 5.72538 -4.40517 20.8314 -9.89547 9.48868 173.204 -5.30175 87.925 -11.8254 -8.19203 -1.0884 65.4673 -3.471 0.887154 29.0715 -1.21507 3.77277 0.184685 7.89743 -90.0738 11.0793 0.333434 -0.179145 -0.591645 0.325209 -0.193645 -23.1271 0.371841 -0.070657 -3.11448 0.371832 -0.0706552 85.9998 -36.4306 -111.695 43.0164 7.73303 -4.4459 -5.29223 -41.8977 -5.44538 -22.9096 2.43107 -17.5221 -87.5748 -57.8084 83.6257 -25.52 -12.4041 -17.2273 3.93062 45.9863 -5.0067 3.48675 -0.387959 -10.1768 1.9982 2.46923 -0.666144 -5.87712 2.53302 0.268729 
7.54885 100.822 -4.48174 -102.54 -49.2476 -100.111 -174.642 -4.58941 90.2092 -12.0016 7.83264 0.985275 69.6352 5.47489 -7.38349 21.8771 -12.4982 14.5959 173.318 -5.46442 87.9538 -11.6276 -7.92494 -1.23197 65.6861 -3.59944 1.0175 28.6986 -0.995036 3.5067 0.224456 7.94108 -90.1163 10.9921 0.393007 -0.268844 -0.678763 0.380811 -0.285886 -23.2143 0.455627 -0.138293 -3.20167 0.455634 -0.138299 86.8355 -35.6034 -110.536 44.2328 7.11827 -4.88291 -5.27321 -41.6142 -5.43423 -26.2429 2.46137 -15.9898 -87.7182 -58.2327 83.4924 -25.3676 -12.4354 -17.8428 3.97931 46.5547 -5.05902 2.69952 -0.368224 -10.6307 2.38469 2.21504 0.020158 -5.7696 2.18451 -0.00156182 
7.56051 100.855 -4.48132 -102.524 -49.2109 -100.082 -174.537 -4.65794 90.36 -12.1229 7.75158 0.88557 70.6682 5.41323 -10.4751 23.575 -15.0729 20.4721 173.358 -5.73999 87.9964 -11.076 -8.13492 -1.27959 65.4326 -3.58669 0.826141 28.8902 -0.984574 3.21428 0.221363 7.92746 -90.0972 11.02 0.395662 -0.23122 -0.65092 0.385091 -0.248423 -23.1865 0.44687 -0.10161 -3.17387 0.446857 -0.101631 86.5819 -36.0822 -110.799 43.8333 7.31656 -4.75964 -5.33307 -42.4811 -5.46977 -26.4392 2.47549 -15.9749 -87.5074 -57.7563 83.7109 -25.606 -12.3272 -17.6564 3.98554 46.5896 -5.06229 2.51256 -0.370342 -10.92 2.58432 2.26919 -0.278506 -5.9809 2.28346 0.0573301 
7.58086 100.88 -4.48642 -102.646 -49.1154 -100.151 -174.536 -4.56253 90.3385 -12.4833 7.87756 0.915354 70.6685 5.27633 -10.8372 23.9596 -15.5496 21.6026 173.382 -5.88081 88.0034 -10.9597 -8.03439 -1.32192 65.4062 -3.5759 1.01731 28.6912 -0.987141 3.48943 0.239906 7.92184 -90.1024 11.0186 0.430175 -0.24504 -0.652266 0.418955 -0.263729 -23.1879 0.483934 -0.104414 -3.17531 0.483899 -0.104434 86.7734 -36.0545 -110.466 43.7685 7.33976 -4.77535 -5.30851 -42.2833 -5.45329 -25.1464 2.5604 -16.9691 -87.4817 -57.7761 83.7494 -25.6913 -12.2876 -17.6047 3.99121 46.6257 -5.06567 2.95047 -0.38628 -10.7316 2.56292 2.27819 -0.112309 -5.731 2.27644 -0.227621 
7.59584 100.87 -4.48438 -102.787 -48.9871 -100.174 -174.45 -4.73554 90.3413 -12.2125 7.75148 0.884556 69.9168 5.5848 -7.17396 22.0552 -12.1692 14.3086 173.39 -5.92119 88.0434 -11.0863 -8.20043 -1.31692 65.429 -3.56956 0.958348 28.7328 -0.959436 3.33856 0.246667 7.91835 -90.1101 11.0153 0.440007 -0.261584 -0.655609 0.428088 -0.280717 -23.1913 0.498307 -0.117252 -3.17864 0.498311 -0.117245 86.7267 -36.1187 -110.525 43.6475 7.40919 -4.69923 -5.32278 -42.4061 -5.46275 -24.594 2.58376 -17.3434 -87.4501 -57.7825 83.7939 -25.6689 -12.3119 -17.4398 3.99599 46.6564 -5.06856 3.24649 -0.422608 -11.1292 2.84881 2.1691 -0.0559814 -6.0963 2.17109 -0.469443 
7.61995 100.865 -4.48915 -102.857 -49.013 -100.243 -174.453 -4.68832 90.3197 -12.4183 7.86862 0.888447 70.2876 5.83154 -6.93565 20.9742 -12.8161 14.0879 173.384 -6.0152 88.021 -10.9804 -8.06126 -1.3336 65.4939 -3.63893 1.11881 28.6166 -0.974384 3.54508 0.238689 7.91645 -90.1231 11.0032 0.418053 -0.285501 -0.667749 0.405112 -0.303639 -23.2034 0.484537 -0.146652 -3.19071 0.484542 -0.146669 86.798 -35.9395 -110.468 43.7351 7.36616 -4.72523 -5.32753 -42.4467 -5.46589 -24.4662 2.57246 -17.3582 -87.514 -57.8138 83.7105 -25.6954 -12.2907 -17.5391 3.975 46.5009 -5.054 2.76574 -0.393536 -11.1164 2.83287 2.11214 0.0989434 -5.90588 2.09252 -0.566638 
7.6284 100.874 -4.49703 -102.933 -49.0423 -100.219 -174.364 -4.65806 90.423 -12.4478 7.90171 0.855776 69.6714 5.66517 -5.72941 21.2901 -10.6729 11.2219 173.433 -6.1435 88.1139 -10.8204 -7.94248 -1.32936 65.3872 -3.56814 1.16674 28.6289 -0.969194 3.5109 0.218805 7.91663 -90.1427 11.0059 0.369346 -0.319865 -0.665055 0.354923 -0.335813 -23.2005 0.448413 -0.194067 -3.18784 0.448403 -0.194068 86.6959 -35.8726 -110.679 43.7522 7.36948 -4.68317 -5.32548 -42.4195 -5.46464 -24.6175 2.5332 -17.0957 -87.5556 -57.989 83.6792 -25.5315 -12.3769 -17.5069 3.97435 46.481 -5.05306 2.73896 -0.38927 -11.0665 2.6878 2.1442 0.207043 -5.73992 2.10713 -0.594613 
